<svg xmlns="http://www.w3.org/2000/svg" viewBox="0 0 1024 1024">
  <defs>
    <linearGradient id="g" x1="0" x2="0" y1="0" y2="1">
      <stop offset="0%" stop-color="#0b6edb"/>
      <stop offset="100%" stop-color="#094ea3"/>
    </linearGradient>
    <linearGradient id="g2" x1="0" x2="1" y1="0" y2="1">
      <stop offset="0%" stop-color="#ffffff" stop-opacity="0.85"/>
      <stop offset="100%" stop-color="#ffffff" stop-opacity="0.35"/>
    </linearGradient>
    <filter id="shadow" x="-20%" y="-20%" width="140%" height="140%">
      <feDropShadow dx="0" dy="8" stdDeviation="18" flood-color="#083e7a" flood-opacity="0.35"/>
    </filter>
  </defs>
  <!-- Rounded square background -->
  <rect x="64" y="64" width="896" height="896" rx="196" ry="196" fill="url(#g)"/>
  <!-- Subtle top highlight -->
  <path d="M128 160h768c32 0 64 26 64 64v-32c0-53-43-96-96-96H224c-53 0-96 43-96 96v32c0-38 26-64 64-64z" fill="url(#g2)"/>
  <!-- Logo glyph: stacked lines (chart) with speech bubble outline -->
  <g transform="translate(180,200)" fill="#fff" filter="url(#shadow)">
    <!-- speech bubble outline -->
    <path d="M150 56c-83 0-150 58-150 129 0 44 25 83 64 107v100l96-72c58 0 105-20 137-50 18-17 31-38 37-60 3-9 4-19 4-29 0-71-67-129-150-129z" fill-opacity="0.22"/>
    <!-- chart sheet -->
    <rect x="160" y="80" width="460" height="520" rx="28" fill="#ffffff"/>
    <rect x="180" y="120" width="420" height="56" rx="12" fill="#0b6edb"/>
    <!-- rows -->
    <rect x="180" y="200" width="370" height="36" rx="10" fill="#dfeeff"/>
    <rect x="180" y="250" width="420" height="36" rx="10" fill="#eaf3ff"/>
    <rect x="180" y="300" width="340" height="36" rx="10" fill="#dfeeff"/>
    <rect x="180" y="350" width="420" height="36" rx="10" fill="#eaf3ff"/>
    <rect x="180" y="400" width="300" height="36" rx="10" fill="#dfeeff"/>
    <rect x="180" y="450" width="420" height="36" rx="10" fill="#eaf3ff"/>
  </g>
  <!-- Monogram: FX (FLEx) -->
  <g transform="translate(640,720)">
    <path d="M0 0h-200v-60h120v-35h-120v-60h200v60h-70v35h70z" fill="#083e7a" opacity="0.85"/>
    <path d="M20 -155l45 55 45-55h75l-80 95 80 95h-75l-45-55-45 55h-75l80-95-80-95z" fill="#083e7a" opacity="0.85"/>
  </g>
</svg>
